<?xml version="1.0" encoding="UTF-8"?>
<svg version="1.1" viewBox="130 80 490 360" xmlns="http://www.w3.org/2000/svg">
 <defs>
  <filter id="a" x="-.010529" y="-.013948" width="1.0211" height="1.0279" color-interpolation-filters="sRGB">
   <feGaussianBlur stdDeviation="1.92373"/>
  </filter>
 </defs>
 <g opacity=".97">
  <g transform="translate(812.57 92.36)" fill-rule="evenodd">
   <path d="m-433.67 6.0713c-5.0362-0.017-128.45-0.27993-144.68 15.191-13.588 12.951-17.803 55.357-25.597 80.558-0.61007-4.6406-0.32993-4.7091-2.519-11.01-2.5057-7.2121-28.566-10.281-37.03-8.8943-8.4636 1.3867-7.7321 2.4234-7.3717 10.378 0.36042 7.9552 2.0853 13.196 5.8634 19.024 3.7781 5.8275 5.8766 8.2252 12.233 9.1407 6.3563 0.91544 12.736-0.39941 16.588-2.7165 3.8518-2.3171 3.5938-7.7699 7.2052-7.6593 0.53798 0.0165 1.1175 0.29954 1.7125 0.73657-0.77927 1.7215-1.5946 3.284-2.4624 4.6216-12.18 18.776-22.081 5.1178-31.378 24.304-9.2971 19.186-10.555 59.194-11.296 88.107-0.74098 28.913 6.2752 83.039 6.2752 83.039s-2.1709 24.051 6.512 25.57 78.207-0.25198 78.207-0.25198c7.35 0 5.3331-24.304 5.3331-24.304l122.41 8.0442v0.0582l0.453-0.0304 0.453 0.0304v-0.0582l122.41-8.0442s-2.0168 24.304 5.3332 24.304c0 0 69.524 1.771 78.207 0.25198s6.512-25.57 6.512-25.57 7.0162-54.126 6.2752-83.039-1.9989-68.92-11.296-88.107c-9.2971-19.186-19.197-5.5283-31.378-24.304-0.8678-1.3376-1.6831-2.9-2.4624-4.6216 0.595-0.43703 1.1745-0.72009 1.7125-0.73657 3.6114-0.1106 3.3534 5.3422 7.2052 7.6593 3.8519 2.317 10.232 3.6319 16.588 2.7165 6.3563-0.91547 8.4549-3.3132 12.233-9.1407 3.778-5.8276 5.5029-11.068 5.8633-19.024 0.3605-7.9551 1.0919-8.9918-7.3717-10.378-8.4635-1.3867-34.524 1.6822-37.03 8.8943-2.1891 6.3007-1.909 6.3692-2.519 11.01-7.7938-25.201-12.009-67.607-25.597-80.558-16.232-15.471-139.65-15.208-144.68-15.191-0.1043 3.5e-4 -0.906 0-0.906 0z" fill="#333" filter="url(#a)"/>
   <path d="m-436.53 1.7856c-5.0363-0.017-128.45-0.27993-144.68 15.191-13.588 12.951-17.803 55.357-25.597 80.558-0.61007-4.6406-0.32993-4.7091-2.519-11.01-2.5057-7.2121-28.566-10.281-37.03-8.8943-8.4636 1.3867-7.7321 2.4234-7.3717 10.378 0.36042 7.9552 2.0853 13.196 5.8634 19.024 3.7781 5.8275 5.8766 8.2252 12.233 9.1407 6.3563 0.91544 12.736-0.39941 16.588-2.7165 3.8518-2.3171 3.5938-7.7699 7.2052-7.6593 0.53798 0.0165 1.1175 0.29954 1.7125 0.73657-0.77927 1.7215-1.5946 3.284-2.4624 4.6216-12.18 18.776-22.081 5.1178-31.378 24.304-9.2971 19.186-10.555 59.194-11.296 88.107-0.74098 28.913 6.2752 83.039 6.2752 83.039s-2.1709 24.051 6.512 25.57 78.207-0.25198 78.207-0.25198c7.35 0 5.3331-24.304 5.3331-24.304l122.41 8.0442v0.0582l0.453-0.0304 0.453 0.0304v-0.0582l122.41-8.0442s-2.0168 24.304 5.3331 24.304c0 0 69.524 1.771 78.208 0.25198 8.6829-1.519 6.512-25.57 6.512-25.57s7.0161-54.126 6.2751-83.039c-0.7409-28.913-1.9989-68.92-11.296-88.107-9.2971-19.186-19.197-5.5283-31.378-24.304-0.8677-1.3376-1.6831-2.9-2.4624-4.6216 0.5951-0.43703 1.1745-0.72009 1.7125-0.73657 3.6115-0.1106 3.3534 5.3422 7.2053 7.6593 3.8518 2.317 10.232 3.6319 16.588 2.7165 6.3563-0.91547 8.4549-3.3132 12.233-9.1407 3.7781-5.8276 5.503-11.068 5.8634-19.024 0.3604-7.9551 1.0919-8.9918-7.3717-10.378-8.4636-1.3867-34.524 1.6822-37.03 8.8943-2.189 6.3007-1.9089 6.3692-2.519 11.01-7.7937-25.201-12.009-67.607-25.597-80.558-16.232-15.471-139.65-15.208-144.68-15.191-0.1044 3.5e-4 -0.906 0-0.906 0z"/>
   <path d="m-563.36 32.927c-9.0234 7.7028-24.659 92.771-24.659 92.771s97.612-11.477 149.12-10.718c51.512 0.75848 158.08 14.707 158.08 14.707s-15.637-80.202-27.934-95.625c-7.3349-9.1998-87.283-13.24-127.99-13.062-40.704 0.17763-117.6 4.2242-126.62 11.927z" fill="#fff"/>
   <path d="m-314.22 274.33 16.607-2.5 62.143-12.143 2.8571-45.714s-63.438 7.4109-77.143 23.571-18.33 38.873-4.4643 36.786z" fill="#fff"/>
   <path d="m-558.18 274.33-16.607-2.5-62.143-12.143-2.8571-45.714s63.438 7.4109 77.143 23.571 18.33 38.873 4.4643 36.786z" fill="#fff"/>
  </g>
 </g>
</svg>
